<!DOCTYPE svg PUBLIC "-//W3C//DTD SVG 1.1//EN" "http://www.w3.org/Graphics/SVG/1.1/DTD/svg11.dtd">
<!-- Uploaded to: SVG Repo, www.svgrepo.com, Transformed by: SVG Repo Mixer Tools -->
<svg height="173px" width="173px" version="1.1" id="Layer_1" xmlns="http://www.w3.org/2000/svg" xmlns:xlink="http://www.w3.org/1999/xlink" viewBox="-71.68 -71.68 655.36 655.36" xml:space="preserve" fill="#f5ebeb" stroke="#f5ebeb" stroke-width="0.00512" transform="rotate(0)matrix(1, 0, 0, 1, 0, 0)">
<g id="SVGRepo_bgCarrier" stroke-width="0"/>
<g id="SVGRepo_tracerCarrier" stroke-linecap="round" stroke-linejoin="round"/>
<g id="SVGRepo_iconCarrier"> <g> <path style="fill:#8fb3dd8fb3dd;" d="M397.817,163.382c-3.321-1.918-6.542-3.38-9.742-4.692c0.804-4.593,1.285-9.513,1.299-14.818 c0.139-49.001-34.293-108.663-76.937-133.284c-21.454-12.387-40.887-13.534-54.923-5.379l-27.538,16.004 c-3.641-3.355-7.489-6.274-11.491-8.586c-11.269-6.507-21.477-7.112-28.847-2.829l-29.683,17.249 c-13.707-5.327-25.982-4.868-35.364,0.585L68.711,60.107c0.038-0.022,0.078-0.039,0.116-0.061 c-11.641,6.699-18.868,21.021-18.925,41.407c-0.116,40.927,28.665,90.778,64.262,111.33l227.353,131.262 c18.01,10.398,34.312,11.304,46.051,4.381c-0.057,0.034-0.105,0.08-0.162,0.112l55.881-32.475 c11.576-6.728,18.755-21.033,18.813-41.365C462.215,233.796,433.434,183.945,397.817,163.382z"/> <path style="fill:#8fb3dd8fb3dd;" d="M419.04,415.361c0.024-8.711-6.101-19.323-13.682-23.7l-11.534-6.659l21.359-12.412 c2.464-1.432,3.992-4.477,4.005-8.805c0.024-8.711-6.101-19.323-13.682-23.7L143.811,188.996c-3.815-2.203-7.272-2.407-9.768-0.957 l-61.06,35.326c0.008-0.004,0.017-0.008,0.024-0.013c-2.478,1.426-4.016,4.476-4.029,8.818c-0.025,8.711,6.101,19.322,13.682,23.7 l11.534,6.659l-21.359,12.412c0.008-0.004,0.017-0.008,0.025-0.013c-2.478,1.426-4.017,4.476-4.029,8.818 c-0.025,8.712,6.101,19.322,13.682,23.7l11.538,6.661L72.69,326.523c0.008-0.004,0.017-0.008,0.024-0.013 c-2.478,1.427-4.016,4.476-4.029,8.818c-0.025,8.711,6.101,19.323,13.682,23.699l261.694,151.088 c3.925,2.266,7.467,2.413,9.977,0.823c-0.069,0.044-0.138,0.091-0.209,0.134l61.06-35.326c2.464-1.432,3.992-4.477,4.005-8.805 c0.024-8.711-6.101-19.322-13.683-23.699l-11.539-6.661l21.362-12.414C417.5,422.734,419.028,419.688,419.04,415.361z"/> </g> <g> <path style="fill:#8fb3dd;" d="M344.151,478.569c7.581,4.377,13.707,14.988,13.682,23.7c-0.024,8.711-6.19,12.226-13.773,7.848 L82.369,359.027c-7.581-4.377-13.707-14.988-13.683-23.699c0.024-8.711,6.19-12.226,13.773-7.848L344.151,478.569z"/> <path style="fill:#8fb3dd;" d="M344.298,426.988c7.581,4.377,13.707,14.988,13.683,23.7c-0.024,8.711-6.19,12.226-13.773,7.848 L82.515,307.447c-7.581-4.377-13.708-14.988-13.683-23.7c0.024-8.711,6.19-12.226,13.773-7.848L344.298,426.988z"/> <path style="fill:#8fb3dd;" d="M82.661,255.87c-7.581-4.377-13.707-14.988-13.683-23.7c0.024-8.711,6.19-12.226,13.773-7.848 l261.694,151.088c7.581,4.377,13.707,14.988,13.682,23.7c-0.024,8.711-6.19,12.226-13.773,7.848L82.661,255.87z"/> <path style="fill:#8fb3dd;" d="M256.556,43.062c42.644,24.621,77.076,84.283,76.937,133.283 c-0.015,5.305-0.495,10.224-1.299,14.818c3.2,1.312,6.422,2.776,9.742,4.692c35.618,20.563,64.398,70.414,64.283,111.318 c-0.116,40.927-29.085,57.435-64.702,36.872L114.162,212.784c-35.598-20.552-64.378-70.403-64.262-111.33 c0.116-40.904,29.085-57.412,64.682-36.86c2.511,1.45,4.96,3.074,7.389,4.803c0.001-0.372-0.039-0.744-0.038-1.117 c0.073-25.734,18.275-36.107,40.67-23.177c7.31,4.22,14.127,10.417,20.049,17.728C192.535,32.366,221.91,23.06,256.556,43.062z"/> </g> </g>
</svg>